<svg width="20" height="20" viewBox="0 0 20 20" fill="none" xmlns="http://www.w3.org/2000/svg">
<rect width="20" height="20" rx="6" fill="#FEFEFE"/>
<path d="M12.3616 7.55981C13.0344 7.77474 13.5124 8.37878 13.5722 9.08949" stroke="#8F959E" stroke-linecap="round" stroke-linejoin="round"/>
<path fill-rule="evenodd" clip-rule="evenodd" d="M9.84905 16.2761C8.47815 15.4324 7.20281 14.4393 6.04587 13.3149C5.23249 12.505 4.61327 11.5178 4.23564 10.4287C3.55609 8.31599 4.34985 5.89737 6.57123 5.18159C7.7387 4.80575 9.01373 5.02056 9.99754 5.75883C10.9817 5.02146 12.2563 4.80673 13.4239 5.18159C15.6452 5.89737 16.4447 8.31599 15.7651 10.4287C15.3875 11.5178 14.7683 12.505 13.9549 13.3149C12.798 14.4393 11.5226 15.4324 10.1517 16.2761L10.0032 16.3684L9.84905 16.2761Z" stroke="#8F959E" stroke-linecap="round" stroke-linejoin="round"/>
</svg>
