<svg width="40" height="40" viewBox="0 0 40 40" fill="none" xmlns="http://www.w3.org/2000/svg">
<path d="M0 10C0 4.47715 4.47715 0 10 0H30C35.5228 0 40 4.47715 40 10V30C40 35.5228 35.5228 40 30 40H10C4.47715 40 0 35.5228 0 30V10Z" fill="#FEFEFE"/>
<path d="M21.4214 13.588C21.3399 13.6002 21.2616 13.8915 21.1041 14.0432C20.989 14.1527 20.8452 14.1458 20.7689 14.2812C20.7399 14.3318 20.7493 14.4181 20.7164 14.501C20.6522 14.6668 20.4258 14.6816 20.4258 14.8622C20.425 15.0573 20.6146 15.0946 20.7787 15.233C20.9067 15.3444 20.9193 15.4212 21.0743 15.4752C21.2067 15.5189 21.4037 15.3759 21.5811 15.4273C21.7268 15.4695 21.8663 15.4999 21.8992 15.6451C21.9281 15.779 21.8972 15.9866 21.7206 15.9626C21.661 15.9562 21.4029 15.8718 21.0857 15.9044C20.7031 15.9467 20.2664 16.0679 20.2237 16.4821C20.2002 16.7136 20.4951 16.9866 20.7798 16.9311C20.9768 16.8934 20.8836 16.668 20.9909 16.5585C21.1315 16.4182 21.9281 17.0482 22.6687 17.0482C22.9805 17.0482 23.2123 16.9718 23.4427 16.7376C23.4642 16.7197 23.4904 16.6813 23.5237 16.679C23.5551 16.6813 23.6099 16.7113 23.6279 16.7243C24.2244 17.1897 24.6752 18.1232 26.8672 18.1342C27.1754 18.1357 27.5267 18.2787 27.8134 18.5327C28.0692 18.7624 28.2188 19.1194 28.3641 19.4817C28.5834 20.0255 28.9766 20.5544 29.5727 21.143C29.6052 21.1746 30.0959 21.545 30.1351 21.5727C30.1414 21.5765 30.1774 21.6602 30.1649 21.7069C30.1504 22.0598 30.0975 23.086 30.8855 23.1324C31.0782 23.1419 31.0277 23.0104 31.0277 22.9199C31.0273 22.7412 30.9936 22.5636 31.0907 22.3807C31.2235 22.129 30.8091 22.013 30.8213 21.4689C30.8299 21.0632 30.479 21.1324 30.3008 20.8232C30.1982 20.6441 30.1069 20.5491 30.1136 20.33C30.1535 19.0973 29.8433 18.2874 29.6886 18.0886C29.568 17.9384 29.4681 17.8787 29.5786 17.8091C30.2362 17.3874 30.3854 16.995 30.3854 16.995C30.7351 16.1969 31.0496 15.4679 31.4832 15.147C31.5705 15.0808 31.7945 14.9185 31.932 14.8546C32.3365 14.6694 32.5496 14.5573 32.6671 14.4462C32.8531 14.2702 33 13.9033 32.8218 13.6808C32.6001 13.4063 32.2167 13.6242 32.0475 13.7215C30.8385 14.4181 30.6603 15.647 30.2416 16.3528C29.9076 16.9166 29.3643 17.3307 28.8787 17.3646C28.5145 17.3908 28.122 17.3193 27.7312 17.1528C26.7807 16.7482 26.2605 16.2258 26.138 16.1334C25.8826 15.9421 23.9001 14.0527 22.2939 13.9755C22.2939 13.9755 22.0946 13.588 22.0445 13.5816C21.9269 13.5671 21.8067 13.8131 21.7206 13.8417C21.6395 13.8679 21.5032 13.5751 21.4214 13.588ZM14.3506 24.8648C14.1994 24.8614 14.0709 24.7409 14.0709 24.5918L14.0713 19.7278H12.4201V25.0895C12.4201 25.3523 12.6394 25.5667 12.9085 25.5667H15.7946C16.0656 25.5667 16.2822 25.3523 16.2822 25.0895V19.7278H14.6326L14.631 24.5918C14.631 24.7409 14.5025 24.8614 14.3506 24.8648ZM17.3799 19.7278C17.0843 19.7278 16.8434 19.9612 16.8434 20.2514V25.5667H18.4961V20.6909C18.4973 20.5415 18.6218 20.4233 18.7754 20.4233C18.9297 20.4233 19.0534 20.5388 19.0569 20.6868V25.5667H20.703V20.6867C20.705 20.5388 20.8288 20.4232 20.9827 20.4232C21.1354 20.4232 21.2615 20.5415 21.2627 20.6909V25.5667H22.9155V20.2514C22.9155 19.9612 22.6742 19.7278 22.3785 19.7278H17.3799ZM10.2104 20.7012C10.2116 20.5388 10.0753 20.4232 9.93082 20.4232H9.6504V23.3765H9.93082C10.0765 23.3765 10.2117 23.264 10.2104 23.1024V20.7012ZM11.3184 24.0994H9.6504V25.5667H8V19.7278H11.329C11.627 19.7278 11.8597 19.9628 11.8597 20.2537V23.5735C11.8597 23.8648 11.618 24.0994 11.3184 24.0994ZM28.5791 24.261C28.2474 24.261 27.9689 24.5393 27.9689 24.8766C27.9689 25.215 28.2474 25.4911 28.5897 25.4911C28.9292 25.4911 29.2042 25.215 29.2042 24.8766C29.2042 24.5386 28.9292 24.261 28.5896 24.261H28.5791ZM29.3224 24.8747C29.3224 25.2713 28.995 25.5937 28.5897 25.5937C28.18 25.5937 27.851 25.2736 27.851 24.8747C27.851 24.4834 28.18 24.1564 28.5775 24.1564C28.995 24.1564 29.3224 24.4736 29.3224 24.8747Z" fill="#1D1E20"/>
<path d="M28.5133 24.8291C28.628 24.8291 28.6883 24.7895 28.6883 24.7105C28.6883 24.6401 28.63 24.604 28.5184 24.604H28.4855V24.8291H28.5133ZM28.9359 25.2907H28.7389L28.4855 24.9633V25.2907H28.3245V24.4629H28.4937C28.7236 24.4629 28.8458 24.5473 28.8458 24.7085C28.8458 24.8161 28.7737 24.9116 28.6731 24.9401L28.6613 24.9443L28.9359 25.2907ZM25.6864 23.3777V20.689C25.6825 20.5403 25.5591 20.4263 25.4052 20.4263C25.2529 20.4263 25.1268 20.5449 25.1256 20.6932V23.3777H25.6864ZM25.6864 25.5668V24.1009H25.1256V25.5668H23.476V20.2514C23.476 19.9612 23.7168 19.7278 24.0126 19.7278H26.7994C27.0959 19.7278 27.3368 19.9612 27.3368 20.2514V25.5667L25.6864 25.5668Z" fill="#1D1E20"/>
</svg>
